<svg width="620" height="408" viewBox="0 0 620 408" fill="none" xmlns="http://www.w3.org/2000/svg">
<path d="M77.099 45.865C81.2283 49.6683 84.271 54.2323 86.227 59.557C88.183 64.773 88.9437 69.989 88.509 75.205C88.0743 80.2037 86.4987 84.822 83.782 89.06C81.0653 93.1893 76.936 96.3407 71.394 98.514C67.0473 100.361 62.755 101.665 58.517 102.426C54.279 103.187 49.6063 103.784 44.499 104.219C42.217 104.436 40.261 104.599 38.631 104.708C37.1097 104.708 35.3167 104.762 33.252 104.871C32.8173 104.871 32.0567 104.871 30.97 104.871C29.992 104.871 29.2857 104.925 28.851 105.034V138.775C28.525 140.84 28.0903 142.959 27.547 145.132C27.1123 147.305 25.8627 148.99 23.798 150.185C22.6027 150.837 21.1357 151.217 19.397 151.326C17.6583 151.435 16.0827 151.38 14.67 151.163C13.1487 150.946 11.8447 150.565 10.758 150.022C9.78 149.37 8.965 148.283 8.313 146.762C7.87833 145.784 7.44367 144.697 7.009 143.502C6.683 142.198 6.52 140.622 6.52 138.775V48.636C6.52 47.8753 6.57433 47.169 6.683 46.517C6.79167 45.865 6.90033 45.213 7.009 44.561C7.22633 44.0177 7.38933 43.42 7.498 42.768C7.60667 42.116 7.76967 41.5183 7.987 40.975C8.20433 40.4317 8.42167 39.9427 8.639 39.508C8.965 39.0733 9.34533 38.693 9.78 38.367C10.3233 37.8237 11.1383 37.3347 12.225 36.9C13.4203 36.4653 15.159 36.248 17.441 36.248H17.767C21.1357 36.0307 24.8847 35.8677 29.014 35.759C33.1433 35.5417 36.5663 35.596 39.283 35.922C40.8043 36.1393 42.217 36.3023 43.521 36.411C44.825 36.411 46.0747 36.4653 47.27 36.574C48.574 36.6827 49.878 36.7913 51.182 36.9C52.486 37.0087 53.79 37.1717 55.094 37.389C56.1807 37.6063 57.1587 37.7693 58.028 37.878C59.006 37.9867 59.984 38.1497 60.962 38.367C61.8313 38.5843 62.755 38.8017 63.733 39.019C64.8197 39.2363 65.7977 39.6167 66.667 40.16C68.949 40.812 70.8507 41.627 72.372 42.605C73.8933 43.583 75.469 44.6697 77.099 45.865ZM67.319 72.76C67.4277 70.152 66.8843 67.87 65.689 65.914C64.6023 63.958 63.0267 62.328 60.962 61.024C58.8973 59.72 56.561 58.6877 53.953 57.927C51.345 57.1663 48.737 56.623 46.129 56.297C45.477 56.297 44.5533 56.297 43.358 56.297C42.2713 56.1883 41.076 56.134 39.772 56.134C38.468 56.0253 37.2183 55.971 36.023 55.971C34.9363 55.8623 34.067 55.808 33.415 55.808C32.8717 55.6993 32.2197 55.645 31.459 55.645C30.6983 55.645 29.829 55.645 28.851 55.645C28.9597 59.0137 29.014 62.2737 29.014 65.425C29.014 68.4677 29.014 71.782 29.014 75.368C28.9053 77.324 28.851 79.28 28.851 81.236C28.851 83.192 28.851 85.0937 28.851 86.941L38.957 86.778C41.565 86.778 44.4447 86.615 47.596 86.289C50.7473 85.963 53.7357 85.311 56.561 84.333C59.3863 83.355 61.777 81.9423 63.733 80.095C65.7977 78.2477 66.993 75.8027 67.319 72.76ZM108.683 82.377C111.943 80.747 115.366 79.606 118.952 78.954C122.538 78.1933 126.069 78.0303 129.547 78.465C133.133 78.791 136.556 79.7147 139.816 81.236C143.076 82.6487 146.118 84.7133 148.944 87.43C151.769 90.2553 153.942 93.3523 155.464 96.721C156.985 100.09 158.072 103.839 158.724 107.968C159.158 110.793 159.865 113.401 160.843 115.792C161.821 118.183 162.853 120.573 163.94 122.964C165.135 125.355 166.222 127.745 167.2 130.136C168.286 132.527 169.156 135.026 169.808 137.634C170.351 140.133 170.134 142.578 169.156 144.969C168.286 147.251 166.439 148.664 163.614 149.207C161.984 149.533 160.408 149.424 158.887 148.881C157.474 148.229 156.17 147.36 154.975 146.273C153.779 145.078 152.693 143.828 151.715 142.524C150.845 141.111 150.03 139.807 149.27 138.612C146.77 141.872 144.054 144.426 141.12 146.273C138.186 148.012 134.654 149.153 130.525 149.696C127.047 150.131 123.733 150.239 120.582 150.022C117.43 149.805 114.062 149.207 110.476 148.229C105.803 147.034 101.945 144.969 98.9028 142.035C95.9688 138.992 93.6868 135.515 92.0568 131.603C90.5355 127.582 89.7205 123.29 89.6118 118.726C89.5031 114.162 90.0465 109.652 91.2418 105.197C92.7631 99.329 95.0451 94.5477 98.0878 90.853C101.13 87.1583 104.662 84.333 108.683 82.377ZM112.758 101.448C111.236 102.969 110.041 104.762 109.172 106.827C108.302 108.892 107.759 111.065 107.542 113.347C107.433 115.629 107.65 117.911 108.194 120.193C108.737 122.475 109.606 124.485 110.802 126.224C111.888 127.745 113.736 129.049 116.344 130.136C118.952 131.114 121.668 131.712 124.494 131.929C127.754 132.146 130.579 131.277 132.97 129.321C135.469 127.365 137.316 124.92 138.512 121.986C139.816 118.943 140.413 115.738 140.305 112.369C140.196 108.892 139.272 105.74 137.534 102.915C136.23 100.85 134.491 99.329 132.318 98.351C130.253 97.373 128.025 96.884 125.635 96.884C123.244 96.7753 120.853 97.1557 118.463 98.025C116.181 98.7857 114.279 99.9267 112.758 101.448ZM183.532 93.298C183.532 91.994 183.532 90.527 183.532 88.897C183.532 87.1583 183.586 85.4197 183.695 83.681C183.803 81.8337 183.966 80.095 184.184 78.465C184.51 76.7263 184.944 75.205 185.488 73.901C186.357 71.945 187.715 70.641 189.563 69.989C191.41 69.2283 193.42 68.9023 195.594 69.011C197.876 69.011 199.669 69.3913 200.973 70.152C202.277 70.9127 203.255 71.945 203.907 73.249C204.559 74.4443 204.939 75.857 205.048 77.487C205.265 79.0083 205.374 80.6383 205.374 82.377C206.352 80.6383 207.656 79.2257 209.286 78.139C211.024 77.0523 212.763 76.183 214.502 75.531C216.24 74.879 217.816 74.4443 219.229 74.227C220.641 73.901 221.456 73.738 221.674 73.738C224.39 73.5207 226.835 73.4663 229.009 73.575C231.291 73.6837 233.79 74.1727 236.507 75.042C238.245 75.694 240.038 76.6177 241.886 77.813C243.733 78.8997 245.363 80.2037 246.776 81.725C248.188 83.2463 249.112 84.9307 249.547 86.778C250.09 88.5167 249.873 90.364 248.895 92.32C247.373 95.0367 245.689 96.395 243.842 96.395C241.994 96.2863 239.984 95.9603 237.811 95.417C236.615 95.1997 235.203 94.7107 233.573 93.95C231.943 93.1893 230.53 92.7003 229.335 92.483C225.64 91.9397 222.38 92.2113 219.555 93.298C216.729 94.3847 214.284 95.6887 212.22 97.21C209.829 99.0573 207.764 101.176 206.026 103.567V127.039C206.026 129.973 205.971 133.016 205.863 136.167C205.863 139.318 205.428 142.198 204.559 144.806C203.798 147.305 202.44 149.37 200.484 151C198.636 152.521 195.92 153.173 192.334 152.956C190.378 152.847 188.639 151.924 187.118 150.185C185.596 148.338 184.673 146.545 184.347 144.806C184.129 143.176 183.966 141.22 183.858 138.938C183.749 136.656 183.64 134.265 183.532 131.766C183.532 129.267 183.532 126.767 183.532 124.268C183.532 121.66 183.532 119.269 183.532 117.096V93.298ZM327.625 79.117C328.494 81.1817 328.549 83.4637 327.788 85.963C327.136 88.4623 325.886 90.0923 324.039 90.853C323.061 91.2877 321.757 91.668 320.127 91.994C318.497 92.2113 316.704 92.4287 314.748 92.646C312.901 92.8633 311.053 93.0263 309.206 93.135C307.359 93.2437 305.783 93.298 304.479 93.298C304.588 96.558 304.696 99.9267 304.805 103.404C304.914 106.773 305.022 110.087 305.131 113.347C305.24 116.607 305.294 119.758 305.294 122.801C305.294 125.735 305.24 128.397 305.131 130.788C305.131 132.418 305.131 134.32 305.131 136.493C305.131 138.558 304.968 140.568 304.642 142.524C304.425 144.48 304.044 146.219 303.501 147.74C302.958 149.153 302.143 150.076 301.056 150.511C297.687 151.924 294.59 152.304 291.765 151.652C289.048 151.109 287.092 149.968 285.897 148.229C285.028 146.816 284.376 145.186 283.941 143.339C283.506 141.383 283.18 139.427 282.963 137.471C282.854 135.406 282.8 133.45 282.8 131.603C282.909 129.647 282.963 127.963 282.963 126.55C283.072 121.986 283.126 116.824 283.126 111.065C283.235 105.197 283.289 99.329 283.289 93.461H280.844C279.54 93.461 277.856 93.461 275.791 93.461C273.835 93.3523 271.825 93.1893 269.76 92.972C267.804 92.646 265.957 92.2657 264.218 91.831C262.479 91.2877 261.23 90.527 260.469 89.549C259.274 88.1363 258.513 86.615 258.187 84.985C257.97 83.355 258.078 81.8337 258.513 80.421C259.056 78.8997 259.871 77.5957 260.958 76.509C262.045 75.3137 263.294 74.553 264.707 74.227C266.663 73.6837 269.434 73.412 273.02 73.412C276.606 73.3033 279.975 73.3033 283.126 73.412C283.017 72.3253 282.963 71.293 282.963 70.315C282.963 69.2283 282.909 68.196 282.8 67.218C282.691 65.914 282.637 64.284 282.637 62.328C282.637 60.2633 282.746 58.253 282.963 56.297C283.289 54.2323 283.778 52.3307 284.43 50.592C285.082 48.7447 286.006 47.332 287.201 46.354C288.831 45.05 290.461 44.3437 292.091 44.235C293.83 44.0177 295.405 44.235 296.818 44.887C298.339 45.539 299.589 46.517 300.567 47.821C301.654 49.0163 302.414 50.3747 302.849 51.896C303.175 53.2 303.447 54.7757 303.664 56.623C303.881 58.3617 303.99 60.209 303.99 62.165C304.099 64.121 304.153 66.077 304.153 68.033C304.153 69.989 304.153 71.782 304.153 73.412H305.783C307.413 73.412 309.315 73.3577 311.488 73.249C313.661 73.1403 315.78 73.1947 317.845 73.412C320.018 73.6293 321.974 74.1727 323.713 75.042C325.452 75.8027 326.756 77.161 327.625 79.117ZM341.597 92.809C341.597 90.3097 341.543 87.6473 341.434 84.822C341.434 81.9967 341.923 79.443 342.901 77.161C343.77 75.0963 345.183 73.6293 347.139 72.76C349.204 71.782 351.214 71.5647 353.17 72.108C355.126 72.434 356.647 73.0317 357.734 73.901C358.821 74.7703 359.581 75.8027 360.016 76.998C360.559 78.0847 360.885 79.3887 360.994 80.91C361.103 82.3227 361.211 83.7353 361.32 85.148C362.407 83.192 363.765 81.6163 365.395 80.421C367.025 79.2257 368.709 78.2477 370.448 77.487C372.187 76.7263 373.817 76.183 375.338 75.857C376.968 75.531 378.218 75.368 379.087 75.368C383.216 75.368 387.291 76.2917 391.312 78.139C395.441 79.8777 398.864 82.377 401.581 85.637C403.102 87.593 404.243 89.6577 405.004 91.831C405.873 93.8957 406.471 96.069 406.797 98.351C407.232 100.633 407.503 102.969 407.612 105.36C407.721 107.642 407.829 109.978 407.938 112.369C408.481 119.324 408.481 126.224 407.938 133.07C407.829 134.483 407.775 136.113 407.775 137.96C407.775 139.807 407.612 141.655 407.286 143.502C407.069 145.241 406.58 146.816 405.819 148.229C405.167 149.533 404.026 150.348 402.396 150.674C400.114 151.217 398.212 151.326 396.691 151C395.278 150.783 394.137 150.294 393.268 149.533C392.399 148.772 391.747 147.794 391.312 146.599C390.877 145.404 390.497 144.045 390.171 142.524C389.954 141.329 389.736 139.97 389.519 138.449C389.41 136.819 389.302 135.189 389.193 133.559C389.193 131.929 389.139 130.353 389.03 128.832C389.03 127.202 389.03 125.735 389.03 124.431C389.03 122.366 388.976 120.084 388.867 117.585C388.758 115.086 388.758 112.749 388.867 110.576C388.867 105.469 387.509 101.611 384.792 99.003C382.184 96.2863 378.598 95.1453 374.034 95.58C370.557 96.0147 367.514 97.4273 364.906 99.818C362.298 102.1 361.048 105.088 361.157 108.783C361.157 110.196 361.157 111.5 361.157 112.695C361.157 113.89 361.103 115.086 360.994 116.281C360.994 117.476 360.994 118.78 360.994 120.193C360.994 121.606 360.994 123.181 360.994 124.92C360.994 128.506 360.994 132.309 360.994 136.33C360.994 140.242 360.505 143.448 359.527 145.947C358.658 148.555 357.191 150.348 355.126 151.326C353.061 152.304 350.616 152.032 347.791 150.511C346.596 149.859 345.618 148.99 344.857 147.903C344.205 146.708 343.662 145.458 343.227 144.154C342.901 142.85 342.684 141.546 342.575 140.242C342.466 138.829 342.358 137.525 342.249 136.33C341.923 132.744 341.706 129.43 341.597 126.387C341.597 123.236 341.597 119.867 341.597 116.281V92.809ZM477.899 128.669C479.203 128.343 480.507 128.126 481.811 128.017C483.224 127.908 484.474 128.071 485.56 128.506C486.756 128.941 487.734 129.701 488.494 130.788C489.255 131.766 489.635 133.179 489.635 135.026C489.635 136.33 489.309 137.58 488.657 138.775C488.005 139.97 487.19 141.057 486.212 142.035C485.234 143.013 484.148 143.882 482.952 144.643C481.757 145.295 480.616 145.838 479.529 146.273C476.378 147.686 472.738 148.772 468.608 149.533C464.588 150.294 460.404 150.565 456.057 150.348C450.189 150.131 444.539 148.99 439.105 146.925C433.781 144.752 429.597 141.22 426.554 136.33C423.729 131.549 422.045 126.224 421.501 120.356C420.958 114.488 421.23 108.946 422.316 103.73C423.512 97.4273 425.522 92.32 428.347 88.408C431.281 84.3873 434.759 81.1817 438.779 78.791C443.669 75.9657 449.157 74.4987 455.242 74.39C461.328 74.2813 467.141 75.4767 472.683 77.976C476.378 79.606 479.692 81.8337 482.626 84.659C485.56 87.3757 487.788 90.69 489.309 94.602C489.744 95.58 490.07 96.7753 490.287 98.188C490.613 99.6007 490.831 101.122 490.939 102.752C491.048 104.273 491.048 105.795 490.939 107.316C490.831 108.837 490.559 110.196 490.124 111.391C489.472 113.347 488.657 114.868 487.679 115.955C486.701 117.042 485.452 117.857 483.93 118.4C482.409 118.943 480.562 119.324 478.388 119.541C476.324 119.65 473.824 119.758 470.89 119.867C468.282 119.976 465.837 120.03 463.555 120.03C461.273 120.03 458.937 120.03 456.546 120.03C454.156 119.921 451.656 119.867 449.048 119.867C446.549 119.758 443.724 119.65 440.572 119.541C440.246 121.714 440.518 123.616 441.387 125.246C442.365 126.767 443.669 128.071 445.299 129.158C446.929 130.136 448.777 130.897 450.841 131.44C452.906 131.983 454.916 132.309 456.872 132.418C460.567 132.635 464.099 132.364 467.467 131.603C470.836 130.734 474.313 129.756 477.899 128.669ZM470.89 97.047C468.826 94.6563 466.652 92.9177 464.37 91.831C462.632 91.0703 460.784 90.7443 458.828 90.853C456.981 90.853 455.188 91.1247 453.449 91.668C450.298 92.4287 447.636 94.0587 445.462 96.558C445.245 96.7753 444.865 97.3187 444.321 98.188C443.778 98.9487 443.235 99.7637 442.691 100.633C442.257 101.502 441.931 102.317 441.713 103.078C441.496 103.839 441.605 104.219 442.039 104.219H473.987C473.879 102.698 473.607 101.448 473.172 100.47C472.738 99.3833 471.977 98.2423 470.89 97.047ZM504.279 93.298C504.279 91.994 504.279 90.527 504.279 88.897C504.279 87.1583 504.333 85.4197 504.442 83.681C504.55 81.8337 504.713 80.095 504.931 78.465C505.257 76.7263 505.691 75.205 506.235 73.901C507.104 71.945 508.462 70.641 510.31 69.989C512.157 69.2283 514.167 68.9023 516.341 69.011C518.623 69.011 520.416 69.3913 521.72 70.152C523.024 70.9127 524.002 71.945 524.654 73.249C525.306 74.4443 525.686 75.857 525.795 77.487C526.012 79.0083 526.121 80.6383 526.121 82.377C527.099 80.6383 528.403 79.2257 530.033 78.139C531.771 77.0523 533.51 76.183 535.249 75.531C536.987 74.879 538.563 74.4443 539.976 74.227C541.388 73.901 542.203 73.738 542.421 73.738C545.137 73.5207 547.582 73.4663 549.756 73.575C552.038 73.6837 554.537 74.1727 557.254 75.042C558.992 75.694 560.785 76.6177 562.633 77.813C564.48 78.8997 566.11 80.2037 567.523 81.725C568.935 83.2463 569.859 84.9307 570.294 86.778C570.837 88.5167 570.62 90.364 569.642 92.32C568.12 95.0367 566.436 96.395 564.589 96.395C562.741 96.2863 560.731 95.9603 558.558 95.417C557.362 95.1997 555.95 94.7107 554.32 93.95C552.69 93.1893 551.277 92.7003 550.082 92.483C546.387 91.9397 543.127 92.2113 540.302 93.298C537.476 94.3847 535.031 95.6887 532.967 97.21C530.576 99.0573 528.511 101.176 526.773 103.567V127.039C526.773 129.973 526.718 133.016 526.61 136.167C526.61 139.318 526.175 142.198 525.306 144.806C524.545 147.305 523.187 149.37 521.231 151C519.383 152.521 516.667 153.173 513.081 152.956C511.125 152.847 509.386 151.924 507.865 150.185C506.343 148.338 505.42 146.545 505.094 144.806C504.876 143.176 504.713 141.22 504.605 138.938C504.496 136.656 504.387 134.265 504.279 131.766C504.279 129.267 504.279 126.767 504.279 124.268C504.279 121.66 504.279 119.269 504.279 117.096V93.298ZM122.902 246.116C123.337 248.181 123.337 250.354 122.902 252.636C122.685 253.723 122.467 254.809 122.25 255.896C122.141 256.874 121.978 257.906 121.761 258.993L121.598 259.645C120.077 266.382 118.338 273.5 116.382 280.998C114.535 288.387 112.85 295.396 111.329 302.025C110.025 307.458 108.667 313.435 107.254 319.955C105.841 326.475 104.374 332.452 102.853 337.885C102.31 339.732 101.712 341.58 101.06 343.427C100.517 345.274 99.8103 347.122 98.941 348.969C98.1803 350.599 97.2567 352.066 96.17 353.37C95.192 354.565 94.051 355.435 92.747 355.978C91.443 356.63 90.0303 356.847 88.509 356.63C87.0963 356.521 85.5207 355.869 83.782 354.674C81.174 352.827 79.218 350.273 77.914 347.013C76.7187 343.753 75.469 340.765 74.165 338.048C73.7303 337.287 73.0783 335.603 72.209 332.995C71.3397 330.387 70.416 327.562 69.438 324.519C68.46 321.368 67.482 318.379 66.504 315.554C65.6347 312.62 64.874 310.447 64.222 309.034C63.244 311.425 62.266 314.141 61.288 317.184C60.31 320.227 59.3863 323.215 58.517 326.149C57.6477 329.083 56.8327 331.745 56.072 334.136C55.42 336.418 54.931 338.102 54.605 339.189C53.7357 341.362 52.7577 343.753 51.671 346.361C50.693 348.969 49.4433 351.197 47.922 353.044C46.5093 354.891 44.7707 356.087 42.706 356.63C40.6413 357.282 38.1963 356.684 35.371 354.837C33.1977 353.533 31.6763 351.686 30.807 349.295C30.2637 347.774 29.7203 346.307 29.177 344.894C28.6337 343.481 28.199 342.014 27.873 340.493L24.613 328.268L17.93 302.025C17.0607 298.656 16.1913 295.233 15.322 291.756C14.5613 288.17 13.6377 284.475 12.551 280.672C12.0077 278.825 11.5187 277.032 11.084 275.293C10.758 273.446 10.3777 271.49 9.943 269.425C9.617 267.252 9.18233 264.807 8.639 262.09C8.20433 259.373 7.661 256.222 7.009 252.636C6.79167 251.441 6.62867 250.354 6.52 249.376C6.52 248.289 6.62867 247.203 6.846 246.116C7.06333 244.486 7.824 243.073 9.128 241.878C9.67133 241.335 10.3233 240.9 11.084 240.574C11.8447 240.248 12.6597 239.976 13.529 239.759C14.833 239.324 16.1913 239.107 17.604 239.107C18.908 239.107 20.2663 239.542 21.679 240.411C22.657 240.954 23.4177 241.661 23.961 242.53L25.917 245.953C26.1343 246.714 26.3517 247.42 26.569 248.072C26.7863 248.615 27.0037 249.213 27.221 249.865C27.4383 250.626 27.6013 251.332 27.71 251.984C27.8187 252.527 27.9273 253.071 28.036 253.614C29.014 259.265 30.2093 264.752 31.622 270.077C33.0347 275.402 34.3387 280.509 35.534 285.399C35.9687 287.355 36.512 289.8 37.164 292.734C37.816 295.559 38.468 298.548 39.12 301.699C39.772 304.742 40.424 307.676 41.076 310.501C41.728 313.326 42.38 315.554 43.032 317.184C44.4447 312.294 45.8573 307.404 47.27 302.514C48.7913 297.624 50.4213 292.68 52.16 287.681C53.0293 285.073 53.8987 282.737 54.768 280.672C55.746 278.499 56.8327 276.706 58.028 275.293C59.2233 273.88 60.5817 272.957 62.103 272.522C63.6243 272.087 65.4173 272.25 67.482 273.011C69.3293 273.772 70.9593 275.402 72.372 277.901C73.7847 280.4 75.0343 282.954 76.121 285.562C77.099 287.953 78.0227 290.506 78.892 293.223C79.87 295.831 80.7937 298.439 81.663 301.047C82.641 303.546 83.5647 305.937 84.434 308.219C85.3033 310.501 86.1727 312.457 87.042 314.087C87.368 312.892 87.7483 311.37 88.183 309.523C88.6177 307.676 89.0523 305.72 89.487 303.655C90.0303 301.482 90.5193 299.363 90.954 297.298C91.3887 295.233 91.8233 293.332 92.258 291.593C93.6707 285.725 95.1377 279.857 96.659 273.989C98.1803 268.012 99.6473 262.144 101.06 256.385L101.875 253.614C102.092 253.071 102.201 252.527 102.201 251.984C102.31 251.332 102.473 250.626 102.69 249.865C102.907 249.213 103.125 248.615 103.342 248.072C103.559 247.42 103.777 246.714 103.994 245.953C104.211 245.41 104.429 244.866 104.646 244.323C104.972 243.671 105.352 243.073 105.787 242.53C106.113 241.987 106.493 241.552 106.928 241.226C107.363 240.9 107.797 240.628 108.232 240.411C109.753 239.542 111.057 239.107 112.144 239.107C113.557 239.107 114.915 239.324 116.219 239.759C117.958 240.085 119.533 240.791 120.946 241.878C122.033 242.965 122.685 244.377 122.902 246.116ZM148.842 281.324C152.428 279.585 156.177 278.336 160.089 277.575C164.001 276.814 167.859 276.651 171.662 277.086C175.574 277.521 179.323 278.553 182.909 280.183C186.604 281.813 189.972 284.095 193.015 287.029C195.514 289.528 197.688 292.571 199.535 296.157C201.382 299.634 202.741 303.057 203.61 306.426C205.457 312.403 205.729 318.434 204.425 324.519C203.121 330.604 200.893 336.255 197.742 341.471C196.221 343.862 194.319 346.035 192.037 347.991C189.864 349.838 187.527 351.36 185.028 352.555C181.768 354.076 178.236 355.109 174.433 355.652C170.63 356.304 166.935 356.467 163.349 356.141C156.829 355.815 151.07 354.185 146.071 351.251C141.181 348.317 137.215 344.568 134.172 340.004C131.238 335.44 129.282 330.278 128.304 324.519C127.435 318.651 127.815 312.674 129.445 306.589C131.184 300.069 133.683 294.799 136.943 290.778C140.312 286.649 144.278 283.497 148.842 281.324ZM153.732 303.166C152.102 304.687 150.852 306.589 149.983 308.871C149.114 311.153 148.57 313.544 148.353 316.043C148.136 318.434 148.299 320.879 148.842 323.378C149.494 325.769 150.472 327.942 151.776 329.898C152.863 331.528 154.819 332.886 157.644 333.973C160.469 335.06 163.403 335.712 166.446 335.929C169.923 336.146 172.966 335.223 175.574 333.158C178.182 330.985 180.138 328.322 181.442 325.171C182.855 322.02 183.507 318.597 183.398 314.902C183.289 311.207 182.311 307.839 180.464 304.796C179.16 302.623 177.313 301.047 174.922 300.069C172.64 298.982 170.195 298.439 167.587 298.439C165.088 298.33 162.588 298.711 160.089 299.58C157.59 300.341 155.471 301.536 153.732 303.166ZM218.392 297.298C218.392 295.994 218.392 294.527 218.392 292.897C218.392 291.158 218.446 289.42 218.555 287.681C218.664 285.834 218.827 284.095 219.044 282.465C219.37 280.726 219.805 279.205 220.348 277.901C221.217 275.945 222.576 274.641 224.423 273.989C226.27 273.228 228.281 272.902 230.454 273.011C232.736 273.011 234.529 273.391 235.833 274.152C237.137 274.913 238.115 275.945 238.767 277.249C239.419 278.444 239.799 279.857 239.908 281.487C240.125 283.008 240.234 284.638 240.234 286.377C241.212 284.638 242.516 283.226 244.146 282.139C245.885 281.052 247.623 280.183 249.362 279.531C251.101 278.879 252.676 278.444 254.089 278.227C255.502 277.901 256.317 277.738 256.534 277.738C259.251 277.521 261.696 277.466 263.869 277.575C266.151 277.684 268.65 278.173 271.367 279.042C273.106 279.694 274.899 280.618 276.746 281.813C278.593 282.9 280.223 284.204 281.636 285.725C283.049 287.246 283.972 288.931 284.407 290.778C284.95 292.517 284.733 294.364 283.755 296.32C282.234 299.037 280.549 300.395 278.702 300.395C276.855 300.286 274.844 299.96 272.671 299.417C271.476 299.2 270.063 298.711 268.433 297.95C266.803 297.189 265.39 296.7 264.195 296.483C260.5 295.94 257.24 296.211 254.415 297.298C251.59 298.385 249.145 299.689 247.08 301.21C244.689 303.057 242.625 305.176 240.886 307.567V331.039C240.886 333.973 240.832 337.016 240.723 340.167C240.723 343.318 240.288 346.198 239.419 348.806C238.658 351.305 237.3 353.37 235.344 355C233.497 356.521 230.78 357.173 227.194 356.956C225.238 356.847 223.499 355.924 221.978 354.185C220.457 352.338 219.533 350.545 219.207 348.806C218.99 347.176 218.827 345.22 218.718 342.938C218.609 340.656 218.501 338.265 218.392 335.766C218.392 333.267 218.392 330.767 218.392 328.268C218.392 325.66 218.392 323.269 218.392 321.096V297.298ZM330.256 317.51C332.646 320.009 334.385 321.857 335.472 323.052C336.667 324.139 337.482 324.954 337.917 325.497C338.46 326.04 338.84 326.366 339.058 326.475C339.275 326.584 339.655 326.91 340.199 327.453C340.742 327.996 341.611 328.866 342.807 330.061C344.002 331.148 345.795 332.941 348.186 335.44C350.142 337.396 351.717 339.678 352.913 342.286C354.217 344.785 354.108 347.502 352.587 350.436C351.717 351.957 350.739 353.044 349.653 353.696C348.566 354.239 347.371 354.457 346.067 354.348C344.871 354.239 343.567 353.859 342.155 353.207C340.851 352.555 339.547 351.74 338.243 350.762C335.743 348.915 333.353 346.796 331.071 344.405C328.789 341.906 326.941 340.004 325.529 338.7C324.551 337.722 323.953 337.07 323.736 336.744C323.518 336.527 323.301 336.364 323.084 336.255C322.866 336.038 322.649 335.82 322.432 335.603C321.671 334.842 320.856 334.082 319.987 333.321C319.117 332.56 318.248 331.745 317.379 330.876V337.233C317.379 338.428 317.433 339.298 317.542 339.841C317.542 340.928 317.487 341.743 317.379 342.286C317.053 343.481 316.89 344.622 316.89 345.709C316.781 346.252 316.672 346.796 316.564 347.339C316.455 347.774 316.292 348.263 316.075 348.806C315.966 349.023 315.857 349.186 315.749 349.295C315.749 349.404 315.749 349.567 315.749 349.784C315.64 350.001 315.531 350.164 315.423 350.273C315.423 350.382 315.368 350.545 315.26 350.762C314.716 351.849 313.847 352.881 312.652 353.859C310.587 355.054 308.033 355.38 304.991 354.837C303.361 354.511 302.111 353.913 301.242 353.044C300.264 352.392 299.612 351.468 299.286 350.273C299.068 349.73 298.851 349.186 298.634 348.643C298.525 347.991 298.362 347.393 298.145 346.85C297.927 346.307 297.819 345.818 297.819 345.383C297.819 344.84 297.819 344.405 297.819 344.079V251.332C297.819 250.68 297.819 250.028 297.819 249.376C297.819 248.724 297.873 248.072 297.982 247.42C298.09 246.768 298.199 246.17 298.308 245.627C298.525 244.975 298.742 244.377 298.96 243.834C299.394 242.747 299.938 241.878 300.59 241.226C301.133 240.683 301.676 240.302 302.22 240.085C302.872 239.759 303.469 239.487 304.013 239.27C304.556 239.161 305.154 239.107 305.806 239.107C306.566 238.998 307.273 238.944 307.925 238.944C309.446 238.944 310.967 239.379 312.489 240.248C313.901 241.226 314.934 242.476 315.586 243.997C316.455 246.062 316.89 248.072 316.89 250.028C316.998 251.115 317.107 252.799 317.216 255.081C317.324 257.254 317.379 258.884 317.379 259.971V260.623C317.487 264.209 317.542 267.632 317.542 270.892C317.542 274.152 317.542 277.684 317.542 281.487C317.433 285.29 317.379 288.931 317.379 292.408C317.379 295.777 317.379 299.145 317.379 302.514V304.307C318.248 303.438 319.117 302.623 319.987 301.862C320.856 301.101 321.671 300.286 322.432 299.417C322.866 299.091 323.301 298.711 323.736 298.276L325.529 296.483C326.941 295.07 328.789 293.169 331.071 290.778C333.353 288.279 335.743 286.105 338.243 284.258C340.959 282.302 343.567 281.107 346.067 280.672C348.675 280.237 350.848 281.541 352.587 284.584C354.108 287.518 354.217 290.289 352.913 292.897C351.717 295.396 350.142 297.733 348.186 299.906C345.795 302.405 344.002 304.253 342.807 305.448C341.611 306.535 340.742 307.35 340.199 307.893C339.655 308.328 339.275 308.599 339.058 308.708C338.84 308.817 338.46 309.143 337.917 309.686C337.482 310.121 336.667 310.936 335.472 312.131C334.385 313.218 332.646 315.011 330.256 317.51ZM405.86 326.312C403.795 325.008 401.459 323.976 398.851 323.215C396.351 322.454 393.743 321.748 391.027 321.096C388.419 320.444 385.865 319.738 383.366 318.977C380.866 318.108 378.584 316.912 376.52 315.391C372.064 312.022 369.456 307.893 368.696 303.003C368.044 298.004 369.13 293.006 371.956 288.007C373.477 285.399 375.487 283.28 377.987 281.65C380.486 279.911 383.203 278.607 386.137 277.738C389.179 276.76 392.276 276.217 395.428 276.108C398.579 275.999 401.567 276.162 404.393 276.597C406.24 276.923 408.196 277.412 410.261 278.064C412.325 278.607 414.227 279.368 415.966 280.346C417.813 281.324 419.443 282.574 420.856 284.095C422.377 285.508 423.464 287.301 424.116 289.474C424.55 290.887 424.605 292.245 424.279 293.549C424.061 294.853 423.518 295.94 422.649 296.809C421.888 297.678 420.856 298.33 419.552 298.765C418.356 299.2 417.052 299.308 415.64 299.091C414.01 298.765 412.488 298.276 411.076 297.624C409.663 296.972 408.25 296.266 406.838 295.505C405.425 294.744 403.958 294.092 402.437 293.549C401.024 293.006 399.503 292.734 397.873 292.734C395.373 292.625 393.309 293.06 391.679 294.038C390.049 295.016 388.908 296.211 388.256 297.624C387.712 299.037 387.767 300.558 388.419 302.188C389.179 303.818 390.701 305.231 392.983 306.426C395.047 307.513 397.329 308.382 399.829 309.034C402.328 309.686 404.773 310.338 407.164 310.99C409.663 311.642 412.054 312.403 414.336 313.272C416.726 314.141 418.845 315.337 420.693 316.858C424.279 319.792 426.452 323.215 427.213 327.127C428.082 331.039 427.865 334.897 426.561 338.7C425.257 342.503 422.975 345.872 419.715 348.806C416.563 351.74 412.814 353.696 408.468 354.674C405.316 355.326 401.893 355.652 398.199 355.652C394.613 355.652 391.027 355.272 387.441 354.511C383.963 353.75 380.595 352.555 377.335 350.925C374.183 349.295 371.521 347.23 369.348 344.731C367.826 342.992 367.011 341.036 366.903 338.863C366.903 336.581 367.337 334.625 368.207 332.995C369.185 331.256 370.543 330.061 372.282 329.409C374.02 328.757 375.976 329.137 378.15 330.55C379.888 331.745 381.953 332.941 384.344 334.136C386.734 335.223 389.125 336.092 391.516 336.744C393.906 337.396 396.188 337.722 398.362 337.722C400.644 337.722 402.6 337.233 404.23 336.255C406.62 334.734 407.87 332.995 407.979 331.039C408.087 328.974 407.381 327.399 405.86 326.312Z" fill="white"/>
<line y1="200.5" x2="440" y2="200.5" stroke="white" stroke-width="7"/>
</svg>
